<svg width="40" height="40" viewBox="0 0 40 40" fill="none" xmlns="http://www.w3.org/2000/svg">
<rect width="40" height="40" rx="20" fill="#EFF1F6"/>
<path d="M14.4289 10.4131C14.555 10.2626 14.6171 10.0687 14.6018 9.87298C14.5865 9.67727 14.4951 9.49535 14.3472 9.36628C14.1992 9.23722 14.0066 9.17129 13.8106 9.18266C13.6147 9.19402 13.431 9.28177 13.2989 9.42707L12.0069 10.9071C11.2743 11.7466 10.8602 12.817 10.8369 13.9311L10.7799 16.6501C10.7758 16.849 10.8509 17.0414 10.9887 17.1849C11.1264 17.3285 11.3155 17.4115 11.5144 17.4156C11.7134 17.4197 11.9058 17.3446 12.0493 17.2069C12.1929 17.0691 12.2758 16.88 12.2799 16.6811L12.3359 13.9631C12.352 13.2008 12.6355 12.4684 13.1369 11.8941L14.4289 10.4131Z" fill="#CB774D"/>
<path fill-rule="evenodd" clip-rule="evenodd" d="M14.2369 15.7C14.3041 14.6301 14.7765 13.6261 15.5579 12.8922C16.3393 12.1584 17.371 11.7499 18.4429 11.75H18.9999V11C18.9999 10.7348 19.1053 10.4804 19.2928 10.2929C19.4804 10.1054 19.7347 10 19.9999 10C20.2652 10 20.5195 10.1054 20.7071 10.2929C20.8946 10.4804 20.9999 10.7348 20.9999 11V11.75H21.5569C22.6289 11.7499 23.6606 12.1584 24.442 12.8922C25.2234 13.6261 25.6958 14.6301 25.7629 15.7L25.9839 19.234C26.0694 20.5812 26.5217 21.8794 27.2919 22.988C27.4513 23.2171 27.5487 23.4835 27.5746 23.7613C27.6005 24.0392 27.5541 24.319 27.4398 24.5736C27.3256 24.8281 27.1474 25.0488 26.9226 25.2142C26.6978 25.3795 26.434 25.4838 26.1569 25.517L22.7499 25.925V27C22.7499 27.7293 22.4602 28.4288 21.9445 28.9445C21.4288 29.4603 20.7293 29.75 19.9999 29.75C19.2706 29.75 18.5711 29.4603 18.0554 28.9445C17.5397 28.4288 17.2499 27.7293 17.2499 27V25.925L13.8429 25.516C13.566 25.4827 13.3025 25.3784 13.0778 25.2131C12.8531 25.0478 12.675 24.8273 12.5608 24.5729C12.4466 24.3184 12.4001 24.0388 12.4259 23.7611C12.4517 23.4834 12.5488 23.2171 12.7079 22.988C13.4782 21.8794 13.9305 20.5812 14.0159 19.234L14.2369 15.7ZM18.7499 27C18.7499 27.3315 18.8816 27.6495 19.1161 27.8839C19.3505 28.1183 19.6684 28.25 19.9999 28.25C20.3315 28.25 20.6494 28.1183 20.8838 27.8839C21.1183 27.6495 21.2499 27.3315 21.2499 27V26.25H18.7499V27Z" fill="#CB774D"/>
<path d="M25.643 9.35495C25.4932 9.48573 25.4015 9.67065 25.388 9.86905C25.3745 10.0674 25.4403 10.2631 25.571 10.413L26.863 11.893C27.3643 12.4677 27.6475 13.2005 27.663 13.963L27.72 16.68C27.7221 16.7784 27.7435 16.8756 27.783 16.9658C27.8226 17.056 27.8796 17.1375 27.9506 17.2057C28.0217 17.274 28.1056 17.3275 28.1973 17.3633C28.2891 17.3991 28.387 17.4165 28.4855 17.4145C28.584 17.4124 28.6811 17.391 28.7714 17.3514C28.8616 17.3119 28.9431 17.2549 29.0113 17.1838C29.0795 17.1127 29.133 17.0289 29.1689 16.9371C29.2047 16.8454 29.2221 16.7474 29.22 16.649L29.163 13.931C29.1398 12.8169 28.7256 11.7465 27.993 10.907L26.701 9.42695C26.5702 9.27714 26.3853 9.1854 26.1869 9.1719C25.9885 9.1584 25.7929 9.22424 25.643 9.35495Z" fill="#CB774D"/>
</svg>
