<svg width="20" height="20" viewBox="0 0 20 20" fill="none" xmlns="http://www.w3.org/2000/svg">
<path d="M9.54742 13.2751L2.90992 6.30887C2.79912 6.19263 2.7373 6.03821 2.7373 5.87762C2.7373 5.71703 2.79912 5.5626 2.90992 5.44637L2.91742 5.43887C2.97114 5.38233 3.0358 5.3373 3.10746 5.30653C3.17913 5.27577 3.25631 5.2599 3.3343 5.2599C3.41229 5.2599 3.48947 5.27577 3.56113 5.30653C3.6328 5.3373 3.69746 5.38233 3.75117 5.43887L10.0012 11.9989L16.2487 5.43887C16.3024 5.38233 16.367 5.3373 16.4387 5.30653C16.5104 5.27577 16.5876 5.2599 16.6655 5.2599C16.7435 5.2599 16.8207 5.27577 16.8924 5.30653C16.964 5.3373 17.0287 5.38233 17.0824 5.43887L17.0899 5.44637C17.2007 5.5626 17.2625 5.71703 17.2625 5.87762C17.2625 6.03821 17.2007 6.19263 17.0899 6.30887L10.4524 13.2751C10.3941 13.3364 10.3238 13.3852 10.2461 13.4185C10.1683 13.4518 10.0845 13.469 9.99992 13.469C9.9153 13.469 9.83156 13.4518 9.75378 13.4185C9.676 13.3852 9.6058 13.3364 9.54742 13.2751Z" fill="black"/>
</svg>
